HIERARCHY
ROOT Hips
{
	OFFSET 0.00000 0.00000 0.00000
	CHANNELS 6 Xposition Yposition Zposition Zrotation Yrotation Xrotation 
	JOINT LHipJoint
	{
		OFFSET 0 0 0
		CHANNELS 3 Zrotation Yrotation Xrotation
		JOINT LeftHip
		{
			OFFSET 1.81638 -1.86202 0.89635
			CHANNELS 3 Zrotation Yrotation Xrotation
			JOINT LeftKnee
			{
				OFFSET 2.63464 -7.23861 0.00000
				CHANNELS 3 Zrotation Yrotation Xrotation
				JOINT LeftAnkle
				{
					OFFSET 2.45871 -6.75336 0.00000
					CHANNELS 3 Zrotation Yrotation Xrotation
					JOINT LeftToe
					{
						OFFSET 0.34235 -0.94059 2.20020
						CHANNELS 3 Zrotation Yrotation Xrotation
						End Site
						{
							OFFSET 0.00000 -0.00000 1.18611
						}
					}
				}
			}
		}
	}
	JOINT RHipJoint
	{
		OFFSET 0 0 0
		CHANNELS 3 Zrotation Yrotation Xrotation
		JOINT RightHip
		{
			OFFSET -1.84405 -1.86203 0.89635
			CHANNELS 3 Zrotation Yrotation Xrotation
			JOINT RightKnee
			{
				OFFSET -2.71067 -7.44751 0.00000
				CHANNELS 3 Zrotation Yrotation Xrotation
				JOINT RightAnkle
				{
					OFFSET -2.47159 -6.79060 0.00000
					CHANNELS 3 Zrotation Yrotation Xrotation
					JOINT RightToe
					{
						OFFSET -0.26223 -0.72048 2.36007
						CHANNELS 3 Zrotation Yrotation Xrotation
						End Site
						{
							OFFSET -0.00000 -0.00000 1.23343
						}
					}
				}
			}
		}
	}
	JOINT lowerback
	{
		OFFSET 0 0 0
		CHANNELS 3 Zrotation Yrotation Xrotation
		JOINT Chest
		{
			OFFSET 0.02089 1.99248 -0.22512
			CHANNELS 3 Zrotation Yrotation Xrotation
			JOINT Chest2
			{
				OFFSET 0.01476 2.01356 -0.03079
				CHANNELS 3 Zrotation Yrotation Xrotation
				JOINT lowerneck
				{
					OFFSET 0 0 0
					CHANNELS 3 Zrotation Yrotation Xrotation
					JOINT Neck
					{
						OFFSET 0.04846 1.65098 0.06663
						CHANNELS 3 Zrotation Yrotation Xrotation
						JOINT Head
						{
							OFFSET -0.06061 1.60634 -0.07565
							CHANNELS 3 Zrotation Yrotation Xrotation
							End Site
							{
								OFFSET -0.02954 1.73562 -0.03642
							}
						}
					}
				}
				JOINT LeftCollar
				{
					OFFSET 0 0 0
					CHANNELS 3 Zrotation Yrotation Xrotation
					JOINT LeftShoulder
					{
						OFFSET 3.45234 1.47051 -0.06993
CHANNELS 3 Zrotation Xrotation Yrotation
						JOINT LeftElbow
						{
OFFSET 0 -5.493130 0.000000
CHANNELS 3 Zrotation Xrotation Yrotation
							JOINT LeftWrist
							{
OFFSET 0 -3.290370 0.000000
CHANNELS 3 Zrotation Xrotation Yrotation
								JOINT lhand
								{
									OFFSET 0 0 0
CHANNELS 3 Zrotation Xrotation Yrotation
									JOINT LFingers
									{
OFFSET 0 -0.729660 0.000000
CHANNELS 3 Zrotation Xrotation Yrotation
										End Site
										{
OFFSET 0 -0.588270 0.000000
										}
									}
								}
								JOINT LThumb
								{
OFFSET 0 0.000000 0.000000
CHANNELS 3 Zrotation Xrotation Yrotation
									End Site
									{
OFFSET 0 -0.597250 0.597250
									}
								}
							}
						}
					}
				}
				JOINT RightCollar
				{
					OFFSET 0 0 0
					CHANNELS 3 Zrotation Yrotation Xrotation
					JOINT RightShoulder
					{
						OFFSET -3.41935 1.44327 0.20453
CHANNELS 3 Zrotation Xrotation Yrotation
						JOINT RightElbow
						{
OFFSET 0 -5.236840 0.000000
CHANNELS 3 Zrotation Xrotation Yrotation
							JOINT RightWrist
							{
OFFSET 0 -3.382510 0.000000
CHANNELS 3 Zrotation Xrotation Yrotation
								JOINT rhand
								{
									OFFSET 0 0 0
CHANNELS 3 Zrotation Xrotation Yrotation
									JOINT RFingers
									{
OFFSET 0 -0.691450 0.000000
CHANNELS 3 Zrotation Xrotation Yrotation
										End Site
										{
OFFSET 0 -0.557470 0.000000
										}
									}
								}
								JOINT RThumb
								{
OFFSET 0 0.000000 0.000000
CHANNELS 3 Zrotation Xrotation Yrotation
									End Site
									{
OFFSET 0 -0.565980 0.565980
									}
								}
							}
						}
					}
				}
			}
		}
	}
}
MOTION
Frames: 11
Frame Time: 0.008333333333333333
-14.372991 16.078657 -2.381763 -121.341222 -86.262990 104.668235 0.000000 0.000000 0.000000 0.167117 11.867253 -3.493288 7.139622 15.448322 49.400281 2.665592 -19.783953 -30.602407 0.478788 -4.437528 -12.310819 0.000000 0.000000 0.000000 11.214547 -13.511882 -3.059695 -7.754461 -15.935659 51.673297 -3.138103 1.741107 -33.133182 -0.476704 4.427824 -12.283373 0.535721 0.053556 11.771832 0.537666 0.039645 3.073926 0.254510 -0.033241 -3.383747 4.549012 -0.194107 -6.707853 -4.181556 -0.400224 6.254124 -2.210803 -0.253165 3.210392 0.000000 0.000000 0.000000 39.954907 -49.583877 -10.944013 59.420421 -56.153553 33.859316 -29.212102 -8.021569 -27.950889 0.000000 0.000000 0.000000 -7.125000 0.000000 0.000000 -56.336613 49.645921 9.072411 0.000000 0.000000 0.000000 -36.549716 -48.709986 4.768837 -52.514150 -53.960469 -28.194791 24.813322 12.233391 22.020692 0.000000 0.000000 0.000000 7.125000 0.000000 0.000000 48.418408 46.064164 -1.676338
-14.377103 16.083717 -2.385684 -122.064386 -86.176463 105.343828 0.000000 0.000000 0.000000 0.260080 11.913354 -3.357871 7.107877 15.422018 49.280926 2.659449 -19.745463 -30.562516 0.477795 -4.432923 -12.297880 0.000000 0.000000 0.000000 11.319407 -13.447456 -2.953040 -7.726622 -15.914402 51.571784 -3.129805 1.695858 -33.099421 -0.473389 4.412534 -12.240195 0.561113 0.085691 11.747318 0.560019 0.086353 3.067931 0.256611 -0.010033 -3.376577 4.541758 -0.199507 -6.642163 -4.157303 -0.406449 6.229619 -2.200234 -0.254995 3.188739 0.000000 0.000000 0.000000 40.002985 -49.493193 -10.860057 59.392146 -56.145806 33.835814 -29.164066 -8.056219 -27.969132 0.000000 0.000000 0.000000 -7.125000 0.000000 0.000000 -56.319965 49.666718 9.104971 0.000000 0.000000 0.000000 -36.608808 -48.572455 4.662229 -52.432434 -53.930602 -28.128733 24.802518 12.276759 22.065637 0.000000 0.000000 0.000000 7.125000 0.000000 0.000000 48.443493 46.099961 -1.733629
-14.380804 16.088656 -2.389052 -122.582586 -86.089985 105.818274 0.000000 0.000000 0.000000 0.352046 11.944666 -3.231790 7.077354 15.396641 49.166082 2.654444 -19.697623 -30.526115 0.478652 -4.436768 -12.308859 0.000000 0.000000 0.000000 11.426708 -13.395935 -2.854215 -7.699885 -15.893945 51.474230 -3.121557 1.648958 -33.066407 -0.471117 4.402048 -12.210606 0.597050 0.111087 11.726785 0.582959 0.125416 3.060963 0.254529 0.009319 -3.372531 4.538387 -0.206092 -6.576257 -4.142385 -0.414072 6.196360 -2.193447 -0.257819 3.164064 0.000000 0.000000 0.000000 40.035541 -49.407975 -10.764468 59.364720 -56.138274 33.813039 -29.137094 -8.086424 -27.973472 0.000000 0.000000 0.000000 -7.125000 0.000000 0.000000 -56.305243 49.674333 9.114378 0.000000 0.000000 0.000000 -36.705387 -48.454973 4.558912 -52.331758 -53.893667 -28.047387 24.799140 12.305868 22.095633 0.000000 0.000000 0.000000 7.125000 0.000000 0.000000 48.462965 46.123228 -1.771084
-14.383125 16.094119 -2.388232 -122.581220 -86.063219 105.805983 0.000000 0.000000 0.000000 0.358464 11.927733 -3.154907 7.049495 15.373357 49.061135 2.650962 -19.629752 -30.492521 0.481793 -4.451175 -12.349622 0.000000 0.000000 0.000000 11.452791 -13.416828 -2.801161 -7.675100 -15.874963 51.383621 -3.113500 1.642881 -33.024209 -0.470844 4.400887 -12.207329 0.646690 0.117642 11.700019 0.582822 0.140643 3.045668 0.224281 0.016966 -3.373624 4.562422 -0.220909 -6.523339 -4.173998 -0.432781 6.143784 -2.207786 -0.267446 3.135250 0.000000 0.000000 0.000000 40.033697 -49.360725 -10.656175 59.319928 -56.125983 33.775894 -29.183252 -8.149174 -27.972721 0.000000 0.000000 0.000000 -7.125000 0.000000 0.000000 -56.336721 49.665866 9.108370 0.000000 0.000000 0.000000 -36.896982 -48.378363 4.423716 -52.185501 -53.839793 -27.929262 24.812796 12.281356 22.104646 0.000000 0.000000 0.000000 7.125000 0.000000 0.000000 48.479011 46.127940 -1.779278
-14.384531 16.101471 -2.382603 -122.578137 -86.215168 105.811444 0.000000 0.000000 0.000000 0.116079 11.836244 -3.082718 7.020091 15.348757 48.950290 2.655325 -19.490247 -30.482576 0.481441 -4.449549 -12.345034 0.000000 0.000000 0.000000 11.248394 -13.494240 -2.762938 -7.652318 -15.857413 51.300343 -3.106130 1.697502 -32.969930 -0.469597 4.395203 -12.191225 0.592456 0.106446 11.660541 0.521873 0.118306 3.025792 0.194606 0.006805 -3.372769 4.528163 -0.211962 -6.527913 -4.153389 -0.419079 6.155456 -2.194124 -0.260697 3.140506 0.000000 0.000000 0.000000 40.064207 -49.305000 -10.543588 59.289795 -56.117701 33.750832 -29.211887 -8.233283 -28.009706 0.000000 0.000000 0.000000 -7.125000 0.000000 0.000000 -56.390530 49.686317 9.161055 0.000000 0.000000 0.000000 -37.026276 -48.289727 4.331124 -52.070853 -53.797315 -27.836733 24.843975 12.300076 22.120816 0.000000 0.000000 0.000000 7.125000 0.000000 0.000000 48.512636 46.135457 -1.793083
-14.385709 16.107781 -2.377887 -122.822997 -86.331085 106.065274 0.000000 0.000000 0.000000 -0.089201 11.756641 -3.011791 6.992969 15.325997 48.847863 2.660430 -19.349345 -30.476314 0.482307 -4.453394 -12.355908 0.000000 0.000000 0.000000 11.085701 -13.543625 -2.733469 -7.631276 -15.841185 51.223353 -3.097360 1.730316 -32.913581 -0.470079 4.397409 -12.197429 0.547379 0.101004 11.620405 0.474765 0.105189 3.004805 0.172856 0.001135 -3.372690 4.497682 -0.198034 -6.515452 -4.134200 -0.398477 6.156937 -2.180948 -0.250388 3.139369 0.000000 0.000000 0.000000 40.096855 -49.235486 -10.430353 59.275893 -56.113868 33.739256 -29.249948 -8.322855 -28.042560 0.000000 0.000000 0.000000 -7.125000 0.000000 0.000000 -56.447053 49.702268 9.206489 0.000000 0.000000 0.000000 -37.141641 -48.208560 4.258811 -51.952505 -53.753250 -27.741262 24.874336 12.311023 22.146410 0.000000 0.000000 0.000000 7.125000 0.000000 0.000000 48.552556 46.150232 -1.818671
-14.386801 16.111742 -2.376248 -123.483269 -86.329173 106.728960 0.000000 0.000000 0.000000 -0.152292 11.720931 -2.941462 6.970163 15.306742 48.761420 2.664254 -19.229171 -30.468598 0.486336 -4.471557 -12.407255 0.000000 0.000000 0.000000 11.066992 -13.527921 -2.713873 -7.612499 -15.826710 51.154526 -3.086025 1.707100 -32.857659 -0.473766 4.414274 -12.245088 0.551066 0.110904 11.583260 0.470395 0.119597 2.983433 0.164184 0.008714 -3.374533 4.492288 -0.183422 -6.455980 -4.134200 -0.376764 6.120680 -2.177603 -0.239394 3.116563 0.000000 0.000000 0.000000 40.122665 -49.145629 -10.317417 59.284428 -56.116190 33.746358 -29.309420 -8.414692 -28.056352 0.000000 0.000000 0.000000 -7.125000 0.000000 0.000000 -56.500926 49.701380 9.220897 0.000000 0.000000 0.000000 -37.253757 -48.143762 4.206713 -51.817787 -53.702859 -27.632628 24.897687 12.295045 22.185467 0.000000 0.000000 0.000000 7.125000 0.000000 0.000000 48.597348 46.176247 -1.862165
-14.387832 16.115578 -2.375168 -123.795140 -86.312480 107.026235 0.000000 0.000000 0.000000 -0.176321 11.684847 -2.868339 6.951394 15.290840 48.690317 2.662302 -19.139925 -30.438836 0.485396 -4.467486 -12.395753 0.000000 0.000000 0.000000 11.072069 -13.523333 -2.678129 -7.594591 -15.812793 51.088805 -3.077113 1.703385 -32.809562 -0.474038 4.415614 -12.248903 0.576241 0.114470 11.562884 0.471863 0.127110 2.986158 0.150482 0.012381 -3.360416 4.533658 -0.174151 -6.440353 -4.222139 -0.361945 6.090385 -2.213631 -0.234301 3.104812 0.000000 0.000000 0.000000 40.204492 -49.085395 -10.179515 59.324760 -56.127268 33.779853 -29.291263 -8.474546 -28.110264 0.000000 0.000000 0.000000 -7.125000 0.000000 0.000000 -56.538032 49.741481 9.304363 0.000000 0.000000 0.000000 -37.428723 -48.131814 4.124122 -51.676301 -53.649549 -27.518652 24.884398 12.301239 22.173536 0.000000 0.000000 0.000000 7.125000 0.000000 0.000000 48.579291 46.169222 -1.849953
-14.389646 16.119462 -2.375815 -124.049267 -86.256885 107.257898 0.000000 0.000000 0.000000 -0.133903 11.682423 -2.796517 6.935609 15.277430 48.630401 2.661325 -19.085324 -30.421860 0.484904 -4.465367 -12.389789 0.000000 0.000000 0.000000 11.132988 -13.502653 -2.628869 -7.578016 -15.799904 51.027980 -3.069262 1.680159 -32.772179 -0.473696 4.414163 -12.244802 0.628347 0.123878 11.574133 0.481052 0.147004 2.965088 0.127833 0.022161 -3.388343 4.533131 -0.167872 -6.418483 -4.244626 -0.351092 6.093133 -2.220426 -0.229643 3.102242 0.000000 0.000000 0.000000 40.249354 -49.000003 -10.113511 59.380439 -56.142529 33.826091 -29.261586 -8.508583 -28.135898 0.000000 0.000000 0.000000 -7.125000 0.000000 0.000000 -56.541080 49.764177 9.346236 0.000000 0.000000 0.000000 -37.572263 -48.062623 4.081461 -51.576465 -53.611870 -27.438237 24.885239 12.288399 22.187040 0.000000 0.000000 0.000000 7.125000 0.000000 0.000000 48.589712 46.179300 -1.866352
-14.392445 16.123423 -2.378547 -124.274593 -86.154601 107.453180 0.000000 0.000000 0.000000 -0.013456 11.722025 -2.726666 6.923046 15.266710 48.582536 2.662281 -19.070098 -30.423567 0.485587 -4.468440 -12.398529 0.000000 0.000000 0.000000 11.260604 -13.460524 -2.564754 -7.562994 -15.788228 50.972878 -3.062434 1.630178 -32.747189 -0.473013 4.411159 -12.236267 0.711376 0.141358 11.622749 0.499146 0.183192 2.911351 0.094649 0.040050 -3.470689 4.474546 -0.164663 -6.383386 -4.174570 -0.344332 6.136355 -2.185876 -0.224795 3.109753 0.000000 0.000000 0.000000 40.241160 -48.879556 -10.140276 59.451314 -56.161921 33.884949 -29.227173 -8.514386 -28.121286 0.000000 0.000000 0.000000 -7.125000 0.000000 0.000000 -56.503731 49.760080 9.327663 0.000000 0.000000 0.000000 -37.668812 -47.915478 4.092386 -51.529420 -53.594049 -27.400341 24.908250 12.249069 22.238592 0.000000 0.000000 0.000000 7.125000 0.000000 0.000000 48.643449 46.214806 -1.925346
-14.393437 16.124906 -2.380207 -124.394815 -85.992535 107.539342 0.000000 0.000000 0.000000 0.165635 11.746231 -2.664648 6.916239 15.260944 48.556630 2.666183 -19.031641 -30.434780 0.491290 -4.494140 -12.471268 0.000000 0.000000 0.000000 11.455834 -13.396303 -2.506932 -7.549646 -15.777824 50.923867 -3.055606 1.561318 -32.727487 -0.473536 4.413443 -12.242794 0.846555 0.154821 11.613524 0.543282 0.217439 2.929848 0.059456 0.055931 -3.445723 4.472931 -0.174776 -6.401578 -4.180095 -0.358593 6.096698 -2.187677 -0.232265 3.098988 0.000000 0.000000 0.000000 40.328765 -48.837234 -10.048081 59.511344 -56.178300 33.934836 -29.156676 -8.515973 -28.133251 0.000000 0.000000 0.000000 -7.125000 0.000000 0.000000 -56.465779 49.780552 9.353074 0.000000 0.000000 0.000000 -37.793075 -47.909922 4.001823 -51.435781 -53.558420 -27.325023 24.944783 12.264032 22.233776 0.000000 0.000000 0.000000 7.125000 0.000000 0.000000 48.665588 46.205592 -1.912375
